<?xml version="1.0" standalone="no"?>
<!DOCTYPE svg PUBLIC "-//W3C//DTD SVG 20010904//EN"
 "http://www.w3.org/TR/2001/REC-SVG-20010904/DTD/svg10.dtd">
<svg version="1.0" xmlns="http://www.w3.org/2000/svg"
 width="213.000000pt" height="267.000000pt" viewBox="0 0 213.000000 267.000000"
 preserveAspectRatio="xMidYMid meet">
<metadata>
Created by potrace 1.15, written by Peter Selinger 2001-2017
</metadata>
<g transform="translate(0.000000,267.000000) scale(0.100000,-0.100000)"
fill="#000000" stroke="none">
<path d="M565 2660 c-88 -8 -209 -41 -277 -76 -108 -56 -203 -161 -247 -273
-42 -106 -50 -329 -19 -511 12 -70 51 -168 127 -319 91 -181 131 -354 131
-571 0 -134 20 -378 39 -475 11 -55 47 -163 79 -237 52 -118 141 -198 220
-198 72 0 148 56 171 127 7 21 16 139 21 266 11 264 23 353 72 518 56 187 155
276 246 219 63 -39 132 -220 178 -468 11 -59 17 -152 18 -292 2 -195 3 -207
27 -254 59 -121 188 -151 277 -67 73 70 148 227 178 375 23 108 44 338 44 486
0 217 40 390 131 571 124 246 143 319 143 559 0 217 -22 289 -123 417 -76 97
-197 160 -379 198 -140 29 -307 14 -474 -42 l-84 -28 -63 22 c-82 30 -248 63
-303 62 -23 -1 -83 -5 -133 -9z m292 -161 c77 -16 150 -49 298 -134 173 -99
185 -102 214 -47 22 42 6 68 -69 113 -39 23 -72 45 -75 49 -10 17 125 35 255
34 117 -1 145 -5 215 -28 153 -50 257 -154 284 -283 18 -81 9 -335 -13 -416
-9 -32 -46 -117 -82 -190 -81 -160 -138 -331 -153 -452 -6 -49 -15 -196 -21
-325 -12 -259 -25 -348 -68 -474 -55 -159 -121 -230 -164 -176 -16 20 -18 43
-18 194 0 185 -16 332 -50 466 -63 254 -137 392 -233 439 -128 62 -285 -6
-362 -158 -90 -179 -127 -377 -141 -754 -5 -140 -9 -171 -24 -190 -42 -52
-112 27 -165 187 -41 125 -53 211 -65 466 -19 420 -38 505 -179 787 -81 163
-92 206 -98 391 -5 126 -2 165 12 218 33 121 128 217 263 266 92 33 320 42
439 17z"/>
<path d="M904 2283 c-78 -77 -122 -133 -147 -183 -26 -55 -57 -158 -57 -192 0
-22 -23 -24 -40 -3 -37 44 -41 -24 -5 -77 14 -20 25 -39 25 -42 0 -4 -14 -6
-31 -6 l-30 0 20 -29 c12 -16 41 -42 65 -58 41 -27 42 -30 28 -51 -14 -21 -13
-22 13 -22 54 0 94 -30 166 -127 65 -87 115 -133 147 -133 41 0 88 39 159 132
74 99 112 128 163 128 23 0 24 4 10 31 -6 11 -7 19 -1 19 12 0 111 90 111 101
0 5 -14 9 -31 9 l-31 0 31 42 c41 56 42 132 1 83 -13 -16 -40 -21 -40 -7 0 4
-7 37 -14 73 -21 98 -68 181 -149 265 l-71 74 -16 -43 c-9 -24 -35 -68 -57
-98 -22 -30 -44 -64 -48 -76 -8 -28 -25 -30 -25 -4 0 10 -21 47 -47 82 -26 35
-52 81 -58 102 l-11 39 -30 -29z m368 -101 c11 -19 31 -44 43 -56 34 -34 66
-132 72 -219 5 -71 8 -78 25 -74 21 6 16 -3 -31 -55 -25 -29 -23 -32 24 -40
32 -6 -36 -38 -80 -38 -19 0 -35 -3 -35 -7 0 -14 15 -29 34 -37 17 -6 15 -9
-15 -25 -31 -16 -53 -40 -145 -156 -29 -38 -32 -39 -48 -22 -21 21 -74 22
-103 2 -24 -17 -20 -20 -108 94 -22 29 -57 63 -78 75 l-38 23 26 17 c31 20 24
36 -16 36 -25 0 -109 33 -109 43 0 2 16 1 35 -1 43 -5 44 4 5 53 -35 44 -37
49 -10 35 19 -10 20 -8 20 57 0 94 45 227 83 250 8 4 20 19 27 33 14 28 50 70
60 70 4 0 12 -12 19 -26 6 -15 27 -46 46 -69 19 -23 35 -51 35 -63 0 -42 10
-52 55 -52 43 0 43 1 50 40 7 40 41 94 54 86 4 -3 16 17 26 44 18 47 20 48 37
33 10 -9 28 -32 40 -51z"/>
<path d="M884 2148 c-57 -64 -95 -149 -110 -244 -8 -54 10 -55 22 -1 4 17 9
26 11 20 9 -24 32 -13 72 35 28 32 41 41 41 30 0 -31 18 -19 24 16 7 37 -9
125 -27 150 -11 16 -14 15 -33 -6z"/>
<path d="M1207 2145 c-20 -40 -31 -115 -21 -157 l7 -33 13 30 c7 17 13 24 14
18 0 -7 16 -31 36 -53 36 -40 63 -51 65 -27 0 6 7 -6 15 -28 l14 -40 -4 61
c-4 69 -45 165 -94 224 l-29 34 -16 -29z"/>
<path d="M843 1804 c-22 -10 -15 -59 13 -89 21 -22 31 -26 56 -21 40 8 64 -13
79 -68 9 -35 12 -38 21 -22 19 33 -9 119 -52 161 -35 35 -88 52 -117 39z"/>
<path d="M1202 1793 c-51 -25 -92 -98 -92 -164 0 -41 17 -44 24 -5 9 45 39 71
86 72 48 0 68 16 76 61 10 54 -28 69 -94 36z"/>
</g>
</svg>
