<?xml version="1.0" encoding="utf-8"?>
<!-- Generator: Adobe Illustrator 19.1.0, SVG Export Plug-In . SVG Version: 6.00 Build 0)  -->
<svg version="1.1" id="Layer_1" xmlns="http://www.w3.org/2000/svg" xmlns:xlink="http://www.w3.org/1999/xlink" x="0px" y="0px"
	 width="500px" height="500px" viewBox="0 0 500 500" style="enable-background:new 0 0 500 500;" xml:space="preserve">
<style type="text/css">
	.st0{fill:#FFFFFF;}
	.st1{fill:#2A558C;}
</style>
<g>
	<circle class="st0" cx="251.361" cy="249.11" r="212.279"/>
	<g>
		<g>
			<path class="st1" d="M250.001,470.661C128.329,470.661,29.34,371.672,29.34,250c0-121.673,98.989-220.661,220.661-220.661
				S470.66,128.327,470.66,250C470.66,371.672,371.673,470.661,250.001,470.661z M250.001,56.447
				C143.276,56.447,56.448,143.274,56.448,250s86.828,193.553,193.553,193.553S443.552,356.726,443.552,250
				S356.726,56.447,250.001,56.447z"/>
		</g>
		<g>
			<g>
				<path class="st1" d="M341.971,205H156.992c-15.659,0-28.354-13.34-28.354-29s12.695-29,28.354-29h184.979
					c15.659,0,28.354,13.34,28.354,29S357.63,205,341.971,205z"/>
			</g>
			<g>
				<path class="st1" d="M341.971,279H156.992c-15.659,0-28.354-12.84-28.354-28.5s12.695-28.5,28.354-28.5h184.979
					c15.659,0,28.354,12.84,28.354,28.5S357.63,279,341.971,279z"/>
			</g>
			<g>
				<path class="st1" d="M341.971,354H156.992c-15.659,0-28.354-13.34-28.354-29s12.695-29,28.354-29h184.979
					c15.659,0,28.354,13.34,28.354,29S357.63,354,341.971,354z"/>
			</g>
		</g>
	</g>
</g>
</svg>
